{
  "accessors": [
    {
      "bufferView": 0,
      "byteOffset": 0,
      "componentType": 5123,
      "count": 98202,
      "max": [
        65533.0
      ],
      "min": [
        0.0
      ],
      "name": "buffer-0-group-0-mesh-0-indices",
      "type": "SCALAR"
    },
    {
      "bufferView": 1,
      "byteOffset": 0,
      "componentType": 5126,
      "count": 65534,
      "max": [
        3.2396340370178223,
        3.784580945968628,
        1.4196619987487793
      ],
      "min": [
        -3.2396340370178223,
        -3.8033039569854736,
        0.16813699901103973
      ],
      "name": "buffer-0-group-0-mesh-0-position",
      "type": "VEC3"
    },
    {
      "bufferView": 1,
      "byteOffset": 786408,
      "componentType": 5126,
      "count": 65534,
      "max": [
        1.0,
        1.0,
        0.999941885471344
      ],
      "min": [
        -1.0,
        -1.0,
        -1.0
      ],
      "name": "buffer-0-group-0-mesh-0-normal",
      "type": "VEC3"
    },
    {
      "bufferView": 0,
      "byteOffset": 196404,
      "componentType": 5123,
      "count": 10257,
      "max": [
        6826.0
      ],
      "min": [
        0.0
      ],
      "name": "buffer-0-group-0-mesh-1-indices",
      "type": "SCALAR"
    },
    {
      "bufferView": 1,
      "byteOffset": 1572816,
      "componentType": 5126,
      "count": 6827,
      "max": [
        3.2396340370178223,
        3.784580945968628,
        1.2808270454406738
      ],
      "min": [
        -3.2396340370178223,
        -3.8033039569854736,
        0.16813699901103973
      ],
      "name": "buffer-0-group-0-mesh-1-position",
      "type": "VEC3"
    },
    {
      "bufferView": 1,
      "byteOffset": 1654740,
      "componentType": 5126,
      "count": 6827,
      "max": [
        1.0,
        1.0,
        0.9971593618392944
      ],
      "min": [
        -1.0,
        -1.0,
        -0.9999539256095886
      ],
      "name": "buffer-0-group-0-mesh-1-normal",
      "type": "VEC3"
    },
    {
      "bufferView": 0,
      "byteOffset": 216918,
      "componentType": 5123,
      "count": 63390,
      "max": [
        42481.0
      ],
      "min": [
        0.0
      ],
      "name": "buffer-0-group-1-mesh-0-indices",
      "type": "SCALAR"
    },
    {
      "bufferView": 1,
      "byteOffset": 1736664,
      "componentType": 5126,
      "count": 42482,
      "max": [
        2.272649049758911,
        0.31903401017189026,
        1.3919800519943237
      ],
      "min": [
        -2.2716081142425537,
        -2.0887389183044434,
        0.9586889743804932
      ],
      "name": "buffer-0-group-1-mesh-0-position",
      "type": "VEC3"
    },
    {
      "bufferView": 1,
      "byteOffset": 2246448,
      "componentType": 5126,
      "count": 42482,
      "max": [
        0.9999994039535522,
        1.0,
        0.9999019503593445
      ],
      "min": [
        -0.9999994039535522,
        -1.0,
        -0.9926438927650452
      ],
      "name": "buffer-0-group-1-mesh-0-normal",
      "type": "VEC3"
    },
    {
      "bufferView": 0,
      "byteOffset": 343698,
      "componentType": 5123,
      "count": 23103,
      "max": [
        15022.0
      ],
      "min": [
        0.0
      ],
      "name": "buffer-0-group-2-mesh-0-indices",
      "type": "SCALAR"
    },
    {
      "bufferView": 1,
      "byteOffset": 2756232,
      "componentType": 5126,
      "count": 15023,
      "max": [
        2.6513280868530273,
        2.719388008117676,
        1.3692669868469238
      ],
      "min": [
        -2.6502530574798584,
        -2.8241798877716064,
        0.8666390180587769
      ],
      "name": "buffer-0-group-2-mesh-0-position",
      "type": "VEC3"
    },
    {
      "bufferView": 1,
      "byteOffset": 2936508,
      "componentType": 5126,
      "count": 15023,
      "max": [
        0.832492470741272,
        0.9168655872344971,
        0.9999945163726807
      ],
      "min": [
        -0.816063404083252,
        -0.8532644510269165,
        -0.9833965301513672
      ],
      "name": "buffer-0-group-2-mesh-0-normal",
      "type": "VEC3"
    },
    {
      "bufferView": 0,
      "byteOffset": 389904,
      "componentType": 5123,
      "count": 1701,
      "max": [
        1076.0
      ],
      "min": [
        0.0
      ],
      "name": "buffer-0-group-3-mesh-0-indices",
      "type": "SCALAR"
    },
    {
      "bufferView": 1,
      "byteOffset": 3116784,
      "componentType": 5126,
      "count": 1077,
      "max": [
        0.7544029951095581,
        1.4764480590820312,
        1.4200019836425781
      ],
      "min": [
        -0.7544770240783691,
        0.515067994594574,
        1.192175030708313
      ],
      "name": "buffer-0-group-3-mesh-0-position",
      "type": "VEC3"
    },
    {
      "bufferView": 1,
      "byteOffset": 3129708,
      "componentType": 5126,
      "count": 1077,
      "max": [
        0.9988579750061035,
        1.0,
        0.9994414448738098
      ],
      "min": [
        -0.9882211089134216,
        -0.9999997615814209,
        -0.6084777116775513
      ],
      "name": "buffer-0-group-3-mesh-0-normal",
      "type": "VEC3"
    }
  ],
  "asset": {
    "generator": "Obj2GltfConverter",
    "version": "2.0"
  },
  "bufferViews": [
    {
      "buffer": 0,
      "byteLength": 393306,
      "byteOffset": 0,
      "name": "buffer-0-bufferview-ushort",
      "target": 34963
    },
    {
      "buffer": 0,
      "byteLength": 3142632,
      "byteOffset": 393312,
      "byteStride": 12,
      "name": "buffer-0-bufferview-vec3",
      "target": 34962
    }
  ],
  "buffers": [
    {
      "byteLength": 3535944,
      "name": "buffer-0",
      "uri": "Poly_HS.bin"
    }
  ],
  "materials": [
    {
      "alphaMode": "OPAQUE",
      "doubleSided": true,
      "name": "Poly_盾_ベース",
      "pbrMetallicRoughness": {
        "baseColorFactor": [
          0.321547,
          0.321547,
          0.321547,
          1.0
        ],
        "metallicFactor": 1.0,
        "roughnessFactor": 0.7448017359246658
      }
    },
    {
      "alphaMode": "OPAQUE",
      "doubleSided": true,
      "name": "Poly_盾_模様",
      "pbrMetallicRoughness": {
        "baseColorFactor": [
          0.64,
          0.001685,
          0.0,
          1.0
        ],
        "metallicFactor": 1.0,
        "roughnessFactor": 0.7448017359246658
      }
    },
    {
      "alphaMode": "OPAQUE",
      "doubleSided": true,
      "name": "Poly_盾_模様2",
      "pbrMetallicRoughness": {
        "baseColorFactor": [
          0.026901,
          0.001371,
          0.202376,
          1.0
        ],
        "metallicFactor": 1.0,
        "roughnessFactor": 0.7448017359246658
      }
    },
    {
      "alphaMode": "OPAQUE",
      "doubleSided": true,
      "name": "Material.002",
      "pbrMetallicRoughness": {
        "baseColorFactor": [
          0.8,
          0.526362,
          0.014846,
          1.0
        ],
        "metallicFactor": 1.0,
        "roughnessFactor": 0.7448017359246658
      }
    }
  ],
  "meshes": [
    {
      "name": "buffer-0-mesh-0",
      "primitives": [
        {
          "attributes": {
            "POSITION": 1,
            "NORMAL": 2
          },
          "indices": 0,
          "material": 0,
          "mode": 4
        },
        {
          "attributes": {
            "POSITION": 4,
            "NORMAL": 5
          },
          "indices": 3,
          "material": 0,
          "mode": 4
        },
        {
          "attributes": {
            "POSITION": 7,
            "NORMAL": 8
          },
          "indices": 6,
          "material": 1,
          "mode": 4
        },
        {
          "attributes": {
            "POSITION": 10,
            "NORMAL": 11
          },
          "indices": 9,
          "material": 2,
          "mode": 4
        },
        {
          "attributes": {
            "POSITION": 13,
            "NORMAL": 14
          },
          "indices": 12,
          "material": 3,
          "mode": 4
        }
      ]
    }
  ],
  "nodes": [
    {
      "mesh": 0,
      "name": "node-0"
    }
  ],
  "scenes": [
    {
      "name": "scene-0",
      "nodes": [
        0
      ]
    }
  ]
}